<?xml version="1.0" encoding="UTF-8" standalone="no"?>
<svg
   xmlns:dc="http://purl.org/dc/elements/1.1/"
   xmlns:cc="http://creativecommons.org/ns#"
   xmlns:rdf="http://www.w3.org/1999/02/22-rdf-syntax-ns#"
   xmlns:svg="http://www.w3.org/2000/svg"
   xmlns="http://www.w3.org/2000/svg"
   id="svg5033"
   version="1.1"
   viewBox="0 0 67 67"
   height="67mm"
   width="67mm">
  <defs
     id="defs5027" />
  <metadata
     id="metadata5030">
    <rdf:RDF>
      <cc:Work
         rdf:about="">
        <dc:format>image/svg+xml</dc:format>
        <dc:type
           rdf:resource="http://purl.org/dc/dcmitype/StillImage" />
        <dc:title></dc:title>
      </cc:Work>
    </rdf:RDF>
  </metadata>
  <g
     transform="translate(-62.127975,-45.497025)"
     id="layer1">
    <circle
       cy="78.997025"
       cx="95.627975"
       id="circle6841"
       style="fill:#999999;fill-opacity:1;stroke:none;stroke-width:0.301892;stroke-opacity:1"
       r="33.5" />
    <g
       style="fill:#000000;fill-opacity:1"
       transform="translate(68.318924,-838.88304)"
       id="g6849">
      <path
         id="path6843"
         style="fill:#000000;fill-opacity:1;stroke:none;stroke-width:0.0152888px;stroke-linecap:butt;stroke-linejoin:miter;stroke-opacity:1"
         d="m 22.376342,893.93297 -2.889357,10.4345 -1.592587,0.0129 -0.725223,-5.71076 -1.763509,8.41344 -0.573115,7.76541 1.078568,0.86713 -2.147867,27.16993 h 2.333707 c 0,0 0.674726,-7.34169 3.211093,-7.37888 2.530872,0.0372 2.121915,7.37888 2.121915,7.37888 h 2.333707 l 1.86261,-27.16993 1.206568,-0.86713 0.573115,-7.76541 -0.521626,-8.41344 -1.567656,5.71076 -1.591199,-0.0129 z" />
      <text
         transform="matrix(0.81528563,0,-0.09052499,1.226564,0,0)"
         id="text6847"
         y="768.36218"
         x="107.51092"
         style="font-style:normal;font-variant:normal;font-weight:bold;font-stretch:normal;font-size:36.7411px;line-height:1.25;font-family:'Droid Sans';-inkscape-font-specification:'Droid Sans Bold';font-variant-ligatures:normal;font-variant-caps:normal;font-variant-numeric:normal;font-variant-east-asian:normal;fill:#000000;fill-opacity:1;stroke:none;stroke-width:0.551116"
         xml:space="preserve"><tspan
           style="font-style:normal;font-variant:normal;font-weight:bold;font-stretch:normal;font-size:36.7411px;font-family:'Droid Sans';-inkscape-font-specification:'Droid Sans Bold';font-variant-ligatures:normal;font-variant-caps:normal;font-variant-numeric:normal;font-variant-east-asian:normal;fill:#000000;fill-opacity:1;stroke-width:0.551116"
           y="768.36218"
           x="107.51092"
           id="tspan6845">G</tspan></text>
    </g>
    <g
       id="g6857"
       transform="translate(68.848086,-839.41223)"
       style="fill:#ffffff;fill-opacity:1">
      <path
         d="m 22.376342,893.93297 -2.889357,10.4345 -1.592587,0.0129 -0.725223,-5.71076 -1.763509,8.41344 -0.573115,7.76541 1.078568,0.86713 -2.147867,27.16993 h 2.333707 c 0,0 0.674726,-7.34169 3.211093,-7.37888 2.530872,0.0372 2.121915,7.37888 2.121915,7.37888 h 2.333707 l 1.86261,-27.16993 1.206568,-0.86713 0.573115,-7.76541 -0.521626,-8.41344 -1.567656,5.71076 -1.591199,-0.0129 z"
         style="fill:#ffffff;fill-opacity:1;stroke:none;stroke-width:0.0152888px;stroke-linecap:butt;stroke-linejoin:miter;stroke-opacity:1"
         id="path6851" />
      <text
         xml:space="preserve"
         style="font-style:normal;font-variant:normal;font-weight:bold;font-stretch:normal;font-size:36.7411px;line-height:1.25;font-family:'Droid Sans';-inkscape-font-specification:'Droid Sans Bold';font-variant-ligatures:normal;font-variant-caps:normal;font-variant-numeric:normal;font-variant-east-asian:normal;fill:#ffffff;fill-opacity:1;stroke:none;stroke-width:0.551116"
         x="107.51092"
         y="768.36218"
         id="text6855"
         transform="matrix(0.81528563,0,-0.09052499,1.226564,0,0)"><tspan
           id="tspan6853"
           x="107.51092"
           y="768.36218"
           style="font-style:normal;font-variant:normal;font-weight:bold;font-stretch:normal;font-size:36.7411px;font-family:'Droid Sans';-inkscape-font-specification:'Droid Sans Bold';font-variant-ligatures:normal;font-variant-caps:normal;font-variant-numeric:normal;font-variant-east-asian:normal;fill:#ffffff;fill-opacity:1;stroke-width:0.551116">G</tspan></text>
    </g>
  </g>
</svg>
