<?xml version="1.0" encoding="UTF-8" standalone="no"?>
<svg
   xmlns:dc="http://purl.org/dc/elements/1.1/"
   xmlns:cc="http://creativecommons.org/ns#"
   xmlns:rdf="http://www.w3.org/1999/02/22-rdf-syntax-ns#"
   xmlns:svg="http://www.w3.org/2000/svg"
   xmlns="http://www.w3.org/2000/svg"
   xmlns:sodipodi="http://sodipodi.sourceforge.net/DTD/sodipodi-0.dtd"
   xmlns:inkscape="http://www.inkscape.org/namespaces/inkscape"
   inkscape:version="1.0 (4035a4fb49, 2020-05-01)"
   sodipodi:docname="logo_miniature_inkscape.svg"
   width="66.703598mm"
   height="66.703598mm"
   viewBox="0 0 66.703598 66.703598"
   version="1.1"
   id="svg5033">
  <sodipodi:namedview
     fit-margin-bottom="0"
     fit-margin-right="0"
     fit-margin-left="0"
     fit-margin-top="0"
     inkscape:current-layer="layer1"
     inkscape:window-maximized="0"
     inkscape:window-y="32"
     inkscape:window-x="8"
     inkscape:cy="97.720721"
     inkscape:cx="-21.875865"
     inkscape:zoom="1.2775031"
     inkscape:snap-to-guides="false"
     inkscape:snap-grids="false"
     inkscape:snap-page="false"
     inkscape:snap-center="true"
     inkscape:snap-object-midpoints="true"
     inkscape:snap-midpoints="true"
     inkscape:snap-smooth-nodes="true"
     inkscape:snap-intersection-paths="true"
     inkscape:object-paths="true"
     inkscape:snap-global="true"
     showgrid="false"
     id="namedview846"
     inkscape:window-height="1006"
     inkscape:window-width="1660"
     inkscape:pageshadow="2"
     inkscape:pageopacity="0"
     guidetolerance="10"
     gridtolerance="10"
     objecttolerance="10"
     borderopacity="1"
     bordercolor="#666666"
     pagecolor="#ffffff" />
  <defs
     id="defs5027" />
  <metadata
     id="metadata5030">
    <rdf:RDF>
      <cc:Work
         rdf:about="">
        <dc:format>image/svg+xml</dc:format>
        <dc:type
           rdf:resource="http://purl.org/dc/dcmitype/StillImage" />
        <dc:title></dc:title>
      </cc:Work>
    </rdf:RDF>
  </metadata>
  <g
     id="layer1"
     transform="translate(-62.276131,-45.64518)">
    <rect
       y="45.64518"
       x="62.276131"
       height="66.703598"
       width="66.703598"
       id="rect1435"
       style="fill:#999999;stroke:none;stroke-width:0.296312;stroke-linecap:round;stroke-linejoin:round;paint-order:stroke markers fill" />
    <g
       id="g1424">
      <path
         d="m 90.695266,55.04993 -2.889357,10.4345 -1.592587,0.0129 -0.725223,-5.71076 -1.763509,8.41344 -0.573115,7.76541 1.078568,0.86713 -2.147867,27.16993 h 2.333707 c 0,0 0.674726,-7.34169 3.211093,-7.37888 2.530872,0.0372 2.121915,7.37888 2.121915,7.37888 h 2.333707 l 1.86261,-27.16993 1.206568,-0.86713 0.573115,-7.76541 -0.521626,-8.41344 -1.567656,5.71076 -1.591199,-0.0129 z"
         style="fill:#000000;fill-opacity:1;stroke:none;stroke-width:0.0152888px;stroke-linecap:butt;stroke-linejoin:miter;stroke-opacity:1"
         id="path6843" />
      <g
         aria-label="G"
         transform="matrix(0.81528563,0,-0.09052499,1.226564,0,0)"
         id="text6847"
         style="font-style:normal;font-variant:normal;font-weight:bold;font-stretch:normal;font-size:36.7411px;line-height:1.25;font-family:'Droid Sans';-inkscape-font-specification:'Droid Sans Bold';font-variant-ligatures:normal;font-variant-caps:normal;font-variant-numeric:normal;font-variant-east-asian:normal;fill:#000000;fill-opacity:1;stroke:none;stroke-width:0.551116">
        <path
           d="m 128.62622,69.704167 h 10.4052 V 83.30268 q -1.04052,0.34086 -2.09898,0.6279 -1.05846,0.2691 -2.20662,0.466439 -1.13022,0.1794 -2.38602,0.28704 -1.23786,0.10764 -2.63718,0.10764 -2.94216,0 -5.22054,-0.861119 -2.26044,-0.87906 -3.82121,-2.583359 -1.54284,-1.722239 -2.35014,-4.233838 -0.8073,-2.529538 -0.8073,-5.830496 0,-3.085679 0.897,-5.579337 0.897,-2.493659 2.63718,-4.233838 1.75811,-1.758119 4.30559,-2.690999 2.56542,-0.950819 5.86638,-0.950819 2.09898,0 4.10826,0.448499 2.00928,0.4485 3.6777,1.1661 l -1.84782,4.449117 q -1.21992,-0.609959 -2.76276,-1.022579 -1.5249,-0.41262 -3.21126,-0.41262 -1.82988,0 -3.30096,0.64584 -1.45314,0.6279 -2.49366,1.793999 -1.04052,1.166099 -1.59666,2.816578 -0.55614,1.65048 -0.55614,3.677698 0,1.937519 0.37674,3.552119 0.39468,1.596659 1.21992,2.762758 0.82524,1.166099 2.11692,1.811939 1.30962,0.64584 3.12156,0.64584 1.18404,0 1.99134,-0.10764 0.82524,-0.10764 1.54284,-0.25116 v -5.471697 h -4.96938 z"
           style="font-style:normal;font-variant:normal;font-weight:bold;font-stretch:normal;font-size:36.7411px;font-family:'Droid Sans';-inkscape-font-specification:'Droid Sans Bold';font-variant-ligatures:normal;font-variant-caps:normal;font-variant-numeric:normal;font-variant-east-asian:normal;fill:#000000;fill-opacity:1;stroke-width:0.551116"
           id="path1418" />
      </g>
    </g>
    <path
       d="m 91.224428,54.52074 -2.889357,10.4345 -1.592587,0.0129 -0.725223,-5.71076 -1.763509,8.41344 -0.573115,7.76541 1.078568,0.86713 -2.147867,27.16993 h 2.333707 c 0,0 0.674726,-7.34169 3.211093,-7.37888 2.530872,0.0372 2.121915,7.37888 2.121915,7.37888 h 2.333707 l 1.86261,-27.16993 1.206568,-0.86713 0.573115,-7.76541 -0.521626,-8.41344 -1.567656,5.71076 -1.591199,-0.0129 z"
       style="fill:#ffffff;fill-opacity:1;stroke:none;stroke-width:0.0152888px;stroke-linecap:butt;stroke-linejoin:miter;stroke-opacity:1"
       id="path6851" />
    <g
       style="font-style:normal;font-variant:normal;font-weight:bold;font-stretch:normal;font-size:36.7411px;line-height:1.25;font-family:'Droid Sans';-inkscape-font-specification:'Droid Sans Bold';font-variant-ligatures:normal;font-variant-caps:normal;font-variant-numeric:normal;font-variant-east-asian:normal;fill:#ffffff;fill-opacity:1;stroke:none;stroke-width:0.551116"
       id="text6855"
       transform="matrix(0.81528563,0,-0.09052499,1.226564,0,0)"
       aria-label="G">
      <path
         id="path1412"
         style="font-style:normal;font-variant:normal;font-weight:bold;font-stretch:normal;font-size:36.7411px;font-family:'Droid Sans';-inkscape-font-specification:'Droid Sans Bold';font-variant-ligatures:normal;font-variant-caps:normal;font-variant-numeric:normal;font-variant-east-asian:normal;fill:#ffffff;fill-opacity:1;stroke-width:0.551116"
         d="m 129.22737,69.272725 h 10.4052 v 13.598513 q -1.04052,0.34086 -2.09898,0.627899 -1.05846,0.2691 -2.20662,0.46644 -1.13022,0.1794 -2.38602,0.28704 -1.23786,0.10764 -2.63718,0.10764 -2.94216,0 -5.22054,-0.86112 -2.26043,-0.879059 -3.82121,-2.583358 -1.54284,-1.722239 -2.35014,-4.233838 -0.8073,-2.529539 -0.8073,-5.830497 0,-3.085678 0.897,-5.579337 0.897,-2.493658 2.63718,-4.233837 1.75811,-1.75812 4.30559,-2.690999 2.56542,-0.95082 5.86638,-0.95082 2.09898,0 4.10826,0.4485 2.00928,0.4485 3.6777,1.1661 l -1.84782,4.449117 q -1.21992,-0.609959 -2.76276,-1.022579 -1.5249,-0.41262 -3.21126,-0.41262 -1.82988,0 -3.30096,0.64584 -1.45314,0.627899 -2.49366,1.793999 -1.04052,1.166099 -1.59666,2.816578 -0.55614,1.650479 -0.55614,3.677698 0,1.937519 0.37674,3.552118 0.39468,1.596659 1.21992,2.762759 0.82524,1.166099 2.11692,1.811939 1.30962,0.64584 3.12156,0.64584 1.18404,0 1.99134,-0.10764 0.82524,-0.10764 1.54284,-0.25116 v -5.471697 h -4.96938 z" />
    </g>
  </g>
</svg>
